<?xml version="1.0" encoding="UTF-8" standalone="no"?>
<!-- Created with Inkscape (http://www.inkscape.org/) -->

<svg
   width="105mm"
   height="74mm"
   viewBox="0 0 105 74"
   version="1.1"
   id="svg834"
   inkscape:version="1.1.2 (0a00cf5339, 2022-02-04)"
   sodipodi:docname="dibujo.svg"
   inkscape:export-filename="/home/hernani/uea6/interactividad1/assets/01.png"
   inkscape:export-xdpi="96"
   inkscape:export-ydpi="96"
   xmlns:inkscape="http://www.inkscape.org/namespaces/inkscape"
   xmlns:sodipodi="http://sodipodi.sourceforge.net/DTD/sodipodi-0.dtd"
   xmlns="http://www.w3.org/2000/svg"
   xmlns:svg="http://www.w3.org/2000/svg">
  <sodipodi:namedview
     id="namedview836"
     pagecolor="#ffffff"
     bordercolor="#000000"
     borderopacity="0.25"
     inkscape:pageshadow="2"
     inkscape:pageopacity="0.0"
     inkscape:pagecheckerboard="0"
     inkscape:document-units="px"
     showgrid="false"
     inkscape:zoom="1.0074671"
     inkscape:cx="229.78419"
     inkscape:cy="201.99172"
     inkscape:window-width="1920"
     inkscape:window-height="1016"
     inkscape:window-x="0"
     inkscape:window-y="0"
     inkscape:window-maximized="1"
     inkscape:current-layer="layer1" />
  <defs
     id="defs831" />
  <g
     inkscape:label="Capa 1"
     inkscape:groupmode="layer"
     id="layer1">
    <rect
       style="fill:#000f00;stroke-width:1.1;stroke-miterlimit:4.1"
       id="rect924"
       width="29.938946"
       height="18.534365"
       x="13.941552"
       y="20.116255" />
    <ellipse
       style="fill:#ff00ff;stroke-width:1.1;stroke-miterlimit:4.1"
       id="path948"
       cx="63.825947"
       cy="47.960377"
       rx="13.171638"
       ry="11.955471" />
    <path
       style="fill:#ff00ff;stroke-width:1.1;stroke-miterlimit:4.1"
       id="path1038"
       d="m 26.566226,41.729979 c 0.520771,0.214979 0.755409,0.302826 1.316019,0.592182 2.257936,1.165437 0.725339,0.482349 3.427537,1.83628 2.222648,1.113652 2.896939,1.362916 5.225698,2.366841 2.785094,1.176488 5.703038,1.978803 8.641445,2.663087 1.528683,0.355994 3.265477,0.735428 4.837393,0.891204 0.722038,0.07155 1.449703,0.06479 2.174555,0.09719 0.727533,-0.109265 1.471536,-0.139038 2.182604,-0.327797 2.790137,-0.740677 5.646526,-2.818662 7.7495,-4.750462 0.535014,-0.491466 1.025129,-1.029671 1.537693,-1.544508 1.382307,-1.546309 2.76148,-3.138051 3.658841,-5.026649 0.405069,-0.852512 0.487767,-1.214485 0.769593,-2.101665 0.397222,-1.499973 0.592394,-3.045987 0.739241,-4.588145 0.205975,-1.694302 -0.142052,-2.990107 -0.731973,-4.560054 -0.463166,-1.225872 -1.025268,-2.400744 -1.674333,-3.536926 -0.443987,-0.906044 -1.214303,-1.529406 -2.027706,-2.087692 -0.940615,-0.657595 -1.905021,-1.272656 -2.940831,-1.768182 -0.875199,-0.3311 -1.743324,-0.67189 -2.60419,-1.037379 C 57.957814,18.49902 57.113449,18.054401 56.286849,17.57854 55.575852,17.077323 54.738986,16.830961 53.924342,16.556883 53.202169,16.323941 52.46281,16.155705 51.716536,16.021738 50.719613,15.805 49.807996,15.353864 48.901391,14.902621 c -1.052597,-0.512756 -2.157487,-0.858268 -3.309789,-1.049105 -0.813393,-0.177394 -1.633268,-0.27265 -2.463554,-0.313034 -0.798545,-0.02899 -1.597623,-0.03627 -2.396618,-0.03431 -1.084934,-0.06437 -2.144093,0.08301 -3.211573,0.254764 -1.866635,0.262513 -2.627479,0.586184 -3.741415,2.141703 -0.409022,0.663172 -0.699955,1.384605 -0.980498,2.108207 0,0 0.896556,0.346118 0.896556,0.346118 v 0 c 0.250466,-0.651764 0.516028,-1.299025 0.866048,-1.905199 0.905674,-1.322581 1.535382,-1.533785 3.106058,-1.752288 1.019423,-0.154735 2.029896,-0.287071 3.064518,-0.22266 0.782888,0.0024 1.566095,-0.0015 2.348523,0.03003 0.793568,0.04097 1.577869,0.136931 2.356882,0.297986 1.05836,0.169441 2.071455,0.485686 3.037629,0.955886 0.987901,0.492004 1.981329,0.985519 3.070942,1.210485 0.701233,0.127409 1.390774,0.301032 2.072788,0.507675 0.757425,0.248558 1.53134,0.47269 2.189398,0.940995 0.862071,0.486762 1.738643,0.949341 2.658978,1.317662 0.847198,0.365709 1.707465,0.689292 2.57185,1.012847 0.991984,0.472735 1.91061,1.067318 2.809481,1.698165 0.697619,0.476225 1.358834,0.996651 1.734278,1.776509 0.634085,1.084045 1.186349,2.205598 1.629852,3.38317 0.526206,1.408438 0.862782,2.618796 0.66072,4.139743 -0.136599,1.476563 -0.304932,2.959211 -0.674812,4.397862 -0.249375,0.800954 -0.339688,1.181806 -0.696052,1.951466 -0.840629,1.815544 -2.149711,3.353708 -3.460335,4.843304 -0.493469,0.497811 -0.965473,1.01786 -1.480407,1.49343 -1.9836,1.831964 -4.686817,3.833667 -7.322067,4.553741 -0.655677,0.179163 -1.342707,0.212582 -2.014061,0.318871 -0.695174,-0.02609 -1.392819,-0.01418 -2.085525,-0.07828 -1.53483,-0.142036 -3.272761,-0.506386 -4.764231,-0.844785 -2.898124,-0.657556 -5.77062,-1.449666 -8.512074,-2.613057 -2.292525,-1.000681 -2.964527,-1.24755 -5.142326,-2.37213 -2.174234,-1.122738 -1.532268,-0.883373 -3.427539,-1.919711 -0.575604,-0.314743 -0.80563,-0.408578 -1.332693,-0.64326 0,0 -0.394097,0.894559 -0.394097,0.894559 z" />
    <path
       style="fill:#0000ff;stroke-width:1.1;stroke-miterlimit:4.1"
       id="path1040"
       d="m 21.616418,51.865354 c -0.189119,0.333288 -0.355412,0.541388 -0.31856,0.98194 0.146126,1.74688 2.482314,3.173077 3.699898,4.096679 3.204526,2.248532 6.545031,4.342392 10.119809,5.955996 0.607097,0.274037 1.228487,0.515244 1.842727,0.772864 1.413021,0.538059 2.85432,0.994476 4.308134,1.407361 0.2959,0.08403 0.593995,0.160232 0.889744,0.244798 0.180292,0.05155 0.366093,0.237815 0.53826,0.163515 0.281742,-0.121587 0.421725,-0.445868 0.632587,-0.668803 -0.272137,-0.783852 -0.720122,-1.499368 -0.988531,-2.284482 -0.444249,-1.299456 -0.736846,-2.828771 -0.679421,-4.207378 0.01942,-0.46596 0.120653,-0.924888 0.18098,-1.387332 0.172435,-0.525835 0.304605,-1.066628 0.517303,-1.577504 1.696064,-4.073744 4.781712,-7.360211 7.733239,-10.550234 2.321407,-2.405634 4.80539,-4.754052 7.963456,-6.008563 2.095982,-0.832612 2.672938,-0.780156 4.913276,-1.107321 3.095424,-0.191336 6.192705,0.159692 9.128554,1.174501 1.328266,0.459132 1.735018,0.706385 2.947831,1.309881 1.185326,0.62752 3.125013,2.024076 4.540208,1.893128 0.321736,-0.02977 0.625065,-0.163991 0.937596,-0.245986 0.307549,-0.188627 0.630436,-0.354266 0.922644,-0.565877 0.536512,-0.388531 1.397556,-1.206802 1.871541,-1.645566 0.895774,-0.829215 1.781601,-1.668018 2.662479,-2.513002 1.541491,-1.697707 2.926852,-3.591441 3.870409,-5.693214 0.146037,-0.3253 0.261427,-0.663504 0.392142,-0.995257 0.273733,-1.090803 0.704784,-2.260584 0.591114,-3.409603 -0.05896,-0.595975 -0.1978,-0.840012 -0.412399,-1.372105 -0.17817,-0.315746 -0.322167,-0.640052 -0.606456,-0.881939 C 89.087288,24.132692 87.958377,24.06053 87.070861,23.886078 86.561818,23.786019 86.05217,23.689056 85.542826,23.590545 81.849235,22.849571 78.139818,22.209291 74.480665,21.308003 71.724136,20.551488 69.005264,19.674532 66.207377,19.07783 65.718882,18.942415 65.192674,18.833201 64.744178,18.578297 63.595416,17.925392 62.703968,16.391929 61.993803,15.326947 60.858727,13.625241 60.032301,11.716732 58.77661,10.094032 58.589822,9.852652 58.379361,9.6305576 58.180736,9.3988204 57.061998,8.2452858 55.941353,7.903411 54.394091,7.7159085 52.622996,7.5280842 50.852603,7.6442675 49.087578,7.8231735 46.861205,8.0799656 44.624113,8.2079131 42.385166,8.2819276 40.169522,8.4525408 37.977853,8.1361428 35.789625,7.833629 33.380025,7.4793109 30.951078,7.3195896 28.519372,7.2291786 26.320716,7.1757626 24.120178,7.1465037 21.921356,7.2008713 20.219328,7.316113 18.513933,7.4239781 16.823758,7.6607479 c -1.184565,0.199317 -2.391847,0.2403787 -3.546613,0.5875382 -0.115732,0.053378 -0.252301,0.075057 -0.347196,0.1601333 -0.658857,0.5906902 -0.622868,1.5353501 -0.661662,2.3415686 -0.05925,1.231375 -0.03755,1.812724 -0.03081,3.082526 0.02842,0.592058 0.03927,1.18522 0.08524,1.776174 0.06723,0.864091 0.335543,3.012086 0.432048,3.857997 0.216191,1.89502 0.394696,3.789851 0.547003,5.690916 0.250219,3.537753 0.280537,7.085747 0.375538,10.629849 -0.0052,2.238282 0.239224,4.462619 0.435501,6.688659 0.148201,1.491289 0.551862,2.937954 0.802393,4.413173 0.181794,0.853951 0.147958,1.801882 0.541881,2.601362 0.06987,0.141807 0.16247,0.271233 0.243705,0.40685 0.109216,0.121547 0.201066,0.261305 0.327648,0.364644 0.893359,0.729326 2.249011,1.033981 3.350606,1.272265 0.828924,0.164753 1.673519,0.209846 2.513868,0.27772 0,0 0.0729,-0.959462 0.0729,-0.959462 v 0 c -0.79803,-0.05682 -1.599464,-0.0983 -2.386901,-0.250042 -1.031632,-0.219249 -2.262434,-0.473665 -3.05241,-1.214151 -0.507512,-0.789123 -0.508959,-1.757982 -0.675037,-2.659322 -0.249752,-1.450301 -0.634197,-2.875471 -0.794952,-4.34013 -0.212561,-2.205458 -0.471875,-4.408628 -0.484196,-6.627903 -0.114079,-3.558992 -0.117718,-7.123231 -0.385322,-10.675571 -0.15797,-1.910703 -0.343771,-3.815674 -0.557998,-5.720985 -0.09261,-0.823683 -0.351355,-2.946402 -0.415029,-3.797406 -0.04321,-0.577476 -0.05228,-1.156999 -0.07842,-1.735499 0.0047,-1.340876 -0.01526,-1.722829 0.0637,-3.006288 0.01968,-0.319862 0.04812,-0.639298 0.08504,-0.9576315 0.01742,-0.1502312 0.05927,-0.2968924 0.07785,-0.446985 0.0056,-0.044919 -0.03461,-0.1008152 -0.0057,-0.1356659 0.05055,-0.060993 0.140089,-0.073995 0.210134,-0.110993 1.09589,-0.3590223 2.261468,-0.3613004 3.389104,-0.5727641 1.654534,-0.2322862 3.323497,-0.3476464 4.988992,-0.4714476 2.17995,-0.055452 4.361463,-0.019838 6.541363,0.027446 2.400334,0.083247 4.79874,0.2362726 7.176828,0.5880529 2.241135,0.3134151 4.484894,0.6478865 6.755115,0.4704149 2.257776,-0.083876 4.513715,-0.2162549 6.759858,-0.4674386 1.697395,-0.1589143 3.399343,-0.2672543 5.101204,-0.087471 1.255284,0.1536904 2.272098,0.4232654 3.190121,1.3565099 1.55422,1.760299 2.509366,3.847563 3.76274,5.816664 0.863618,1.299949 1.734735,2.844043 3.152711,3.62194 0.501428,0.275083 1.088663,0.393328 1.632678,0.537571 2.794087,0.563799 5.505929,1.426205 8.251468,2.18201 3.674986,0.89033 7.399237,1.520256 11.097742,2.301587 0.505219,0.103282 1.011089,0.203436 1.515658,0.309848 0.402812,0.08495 0.805545,0.170553 1.206418,0.264227 0.763976,0.17852 1.083646,0.246752 1.448014,0.952416 0.146759,0.335555 0.298686,0.618674 0.343715,0.990837 0.125185,1.034621 -0.276222,2.097379 -0.508056,3.082875 -0.905639,2.36814 -2.281028,4.52115 -4.032086,6.359723 -0.87527,0.840441 -1.751787,1.679316 -2.644055,2.501795 -0.480161,0.442608 -1.212506,1.12673 -1.749991,1.529945 -0.220345,0.165304 -0.461428,0.300987 -0.692145,0.45148 -0.194718,0.06857 -0.379672,0.177342 -0.584152,0.205718 -1.22059,0.169381 -3.196244,-1.247857 -4.225418,-1.757722 -1.267319,-0.612836 -1.716529,-0.875885 -3.099421,-1.338773 -3.060835,-1.024536 -6.281682,-1.370658 -9.497656,-1.164606 -2.363729,0.348057 -2.957057,0.290057 -5.166683,1.175721 -3.253356,1.304012 -5.812904,3.715155 -8.193302,6.212496 -3.02781,3.276934 -6.226098,6.652477 -7.976505,10.831965 -0.235905,0.563275 -0.379733,1.160823 -0.5696,1.741234 -0.06379,0.516871 -0.172728,1.030155 -0.191365,1.550612 -0.07473,2.087224 0.597963,4.569338 1.601226,6.391518 0.202734,-0.06775 0.579472,0.0086 0.608198,-0.203253 0.02598,-0.191555 -0.373256,-0.100779 -0.560388,-0.149251 -1.721662,-0.445945 -3.437114,-0.9187 -5.100621,-1.555398 -0.601798,-0.248359 -1.210599,-0.480378 -1.805393,-0.745075 -3.528618,-1.570318 -6.825178,-3.62422 -9.960044,-5.868289 -0.953563,-0.741675 -1.767375,-1.302837 -2.586422,-2.16802 -0.38604,-0.407783 -0.918374,-1.027726 -0.562865,-1.599996 0,0 -0.767125,-0.613836 -0.767125,-0.613836 z" />
    <path
       style="fill:#008000;stroke-width:1.1;stroke-miterlimit:4.1"
       id="path1075"
       d="m 61.291712,58.706392 c 1.222098,1.033864 2.900514,1.320964 4.42236,1.6534 1.766152,0.376869 3.567756,0.504552 5.367859,0.573566 1.338953,0.07263 2.674186,0.0077 4.010144,-0.07762 0.630031,-0.02207 1.272149,-0.130146 1.899759,-0.0099 0.434184,0.08316 0.692544,0.197852 1.116547,0.351041 1.593704,0.661389 3.177794,1.353709 4.734637,2.098392 1.019008,0.415859 2.786102,1.378114 3.909591,1.244341 0.242989,-0.02893 0.468985,-0.139907 0.703477,-0.20986 0.216882,-0.190161 0.462849,-0.351549 0.650648,-0.570481 1.146125,-1.336125 1.55992,-3.605493 1.829943,-5.283814 0.325281,-3.03507 0.340138,-6.091947 0.368429,-9.140958 0.05666,-1.996546 -0.21088,-3.80573 -0.952984,-5.655413 -0.246594,-0.578821 -0.550939,-1.127644 -0.864153,-1.671775 -0.04338,-0.07536 -0.260514,-0.395063 -0.286713,-0.504378 -0.08534,-0.08133 -0.138372,-0.236606 -0.256029,-0.243991 -0.23961,-0.01503 -0.453581,0.233937 -0.691462,0.201541 -0.04665,-0.0064 -0.100957,-0.0074 -0.135695,-0.03919 -0.10964,-0.100301 -0.185046,-0.232725 -0.283352,-0.344159 -0.223814,-0.253709 -0.455168,-0.500663 -0.682752,-0.750996 -0.775018,-0.972651 -1.380382,-2.064023 -1.896132,-3.192174 -0.288861,-0.63186 -0.50886,-1.145876 -0.625718,-1.828578 -0.046,-0.26874 -0.0422,-0.543661 -0.0633,-0.815491 0.151849,-2.000022 0.943443,-3.851757 1.869667,-5.603658 0.683062,-1.392613 2.082147,-2.890802 2.215447,-4.483174 0.01902,-0.22718 -0.0217,-0.455433 -0.03252,-0.683149 -0.440976,-1.600142 -1.770552,-2.517541 -3.084997,-3.385563 -1.482619,-0.932946 -3.061988,-1.796513 -4.81416,-2.079384 -0.35098,-0.05666 -0.707914,-0.06673 -1.061873,-0.100093 -2.328905,0.01517 -4.530368,0.874534 -6.675972,1.694066 -1.864662,0.75985 -3.785746,1.369979 -5.723518,1.912129 -3.297192,0.811891 -6.676321,0.06292 -9.926725,-0.617421 -0.703839,-0.17875 -1.409864,-0.349115 -2.111523,-0.536248 -0.867373,-0.23133 -3.203091,-0.909583 -4.083809,-1.135036 -1.901447,-0.486748 -3.818441,-0.843018 -5.752669,-1.166353 -1.801366,-0.197165 -3.68794,-0.370959 -5.447596,0.192506 -0.778008,0.249128 -1.061115,0.45798 -1.751577,0.854617 -1.086368,0.758298 -1.847262,1.878922 -1.900838,3.242683 -0.04563,1.161608 0.231791,2.10132 0.468969,3.231757 0.946549,3.456636 3.037914,6.391707 5.47197,8.969785 0.458581,0.485715 0.952375,0.936932 1.428565,1.405398 2.175994,2.146038 4.956953,3.19972 7.646601,4.497986 1.118989,0.629052 2.121699,1.102397 2.400102,2.438019 -0.0082,0.116274 0.0042,0.235828 -0.02447,0.348821 -0.228645,0.902931 -1.440958,1.623224 -2.16367,2.068053 -1.460696,0.787484 -3.13195,0.993838 -4.745022,1.270431 -1.712952,0.335441 -3.381518,0.865693 -5.057254,1.349534 -1.495041,0.545748 -1.805226,1.199589 -1.881651,2.742832 0.207066,1.963973 1.637745,3.28704 3.078697,4.473689 1.414505,1.125884 3.037584,1.932556 4.490318,3.002621 0.867627,0.829001 2.03888,1.13279 3.042598,1.732026 2.771055,1.659988 5.620033,3.189296 8.547915,4.552929 2.423999,0.90886 5.084982,1.421255 7.657481,0.850794 0.395922,-0.0878 0.776007,-0.235944 1.16401,-0.353914 2.006579,-0.816417 3.514853,-2.408629 4.99472,-3.934759 1.158409,-1.195393 2.555547,-2.085576 4.002831,-2.884051 1.909241,-0.868926 3.517099,-2.202638 5.081926,-3.573005 1.546334,-1.327158 3.177033,-2.628638 5.080678,-3.410554 0.276024,-0.113376 0.565687,-0.190187 0.848529,-0.285279 0.278707,-0.03038 0.555773,-0.09389 0.836118,-0.09114 1.4278,0.014 3.211573,0.879959 4.551214,1.381641 0.866522,0.325159 1.982595,0.540919 2.378679,-0.577959 0.172802,-0.488135 0.0091,-0.910442 -0.09626,-1.377587 -0.104195,-0.214096 -0.184057,-0.441849 -0.312586,-0.642282 -0.812549,-1.267134 -2.353411,-1.974456 -3.621278,-2.676554 -2.812132,-1.508628 -5.996086,-1.99772 -9.121746,-2.391637 -3.518932,-0.363247 -7.063508,-0.429157 -10.595124,-0.262414 -3.528732,0.367062 -7.057332,0.704381 -10.600643,0.891564 -2.465448,0.117951 -4.933839,0.138514 -7.401599,0.149061 -2.307672,0.01365 -4.615379,0.0013 -6.923027,-0.01056 -0.289753,0.0072 -2.021282,-0.141555 -2.087764,0.401431 -0.09617,0.785495 0.330137,0.871902 0.823476,1.168664 1.923296,0.87321 3.973468,1.420249 6.010082,1.957018 2.540773,0.581816 5.093187,1.118089 7.600945,1.832287 1.967442,0.625684 3.690284,1.560346 5.369457,2.744859 1.810229,1.40825 3.569848,2.878481 5.272495,4.41471 1.083165,0.888757 1.720091,2.117503 2.424163,3.29451 0.645319,1.000541 1.024178,2.127319 1.619784,3.155903 0.388234,0.615386 0.908471,1.127537 1.379832,1.676987 0,0 0.731289,-0.633764 0.731289,-0.633764 v 0 C 74.618243,64.99394 74.138863,64.526445 73.773357,63.968859 73.173179,62.939365 72.805435,61.800908 72.146112,60.803752 71.394576,59.543967 70.687771,58.24734 69.526123,57.303079 67.789019,55.751168 65.99234,54.269803 64.16387,52.826694 63.364905,52.261443 63.141907,52.07438 62.301479,51.592656 61.103191,50.905811 59.812924,50.396811 58.509484,49.949834 55.993976,49.248104 53.438016,48.706983 50.894537,48.117695 48.942378,47.59295 46.971943,47.073819 45.13219,46.220103 c -0.634154,-0.351718 -0.157142,-0.241051 -0.502987,0.227307 -0.04567,0.06184 -0.294767,0.04736 -0.220556,0.06744 0.0827,0.02238 0.164944,-0.04958 0.250044,-0.05946 0.355849,-0.04129 0.920372,-0.03161 1.251879,-0.03336 2.309222,-0.0063 4.61845,-0.01 6.927678,-0.0033 2.483231,-0.008 4.966735,-0.03992 7.446722,-0.178948 3.540517,-0.196554 7.067222,-0.53526 10.59388,-0.900293 3.481266,-0.163536 6.972821,-0.09113 10.442035,0.260102 3.012933,0.376703 6.077903,0.847301 8.779426,2.322171 1.05677,0.588616 2.508673,1.265036 3.219757,2.291501 0.0953,0.137567 0.156991,0.295605 0.235487,0.44341 0.007,0.02413 0.216861,0.851955 0.19997,0.89762 -0.154361,0.417309 -1.077368,-0.0405 -1.224151,-0.05916 -1.540378,-0.558958 -3.333882,-1.450583 -4.990859,-1.429419 -0.345583,0.0044 -0.685247,0.09068 -1.027872,0.136027 -0.316802,0.111289 -0.641093,0.2032 -0.950407,0.33387 -1.969183,0.831885 -3.664757,2.182572 -5.276885,3.556281 -1.523756,1.319556 -3.085393,2.598512 -4.934791,3.440988 -1.527437,0.847069 -3.006201,1.787057 -4.228346,3.052331 -1.361422,1.423663 -2.739935,2.923919 -4.587957,3.706038 -0.342437,0.108958 -0.677363,0.245194 -1.027311,0.326874 -2.395287,0.559078 -4.880399,0.0955 -7.14546,-0.744432 -2.905797,-1.340813 -5.730925,-2.85755 -8.43316,-4.57482 -0.984284,-0.575122 -2.111909,-0.882505 -2.968921,-1.672413 -1.445292,-1.050719 -3.052353,-1.846689 -4.460269,-2.951864 -1.198555,-0.991372 -2.473132,-2.093997 -2.712533,-3.7201 0.02254,-1.067689 0.152112,-1.47216 1.192004,-1.863426 1.635821,-0.488026 3.2684,-1.013243 4.945631,-1.338572 1.734659,-0.290703 3.525825,-0.525746 5.085726,-1.393568 1.061556,-0.66167 2.403938,-1.496087 2.631247,-2.849208 0.03297,-0.196252 -0.0019,-0.398 -0.0028,-0.596998 -0.04962,-0.189093 -0.07936,-0.384554 -0.148871,-0.567272 -0.472014,-1.240758 -1.688309,-1.887305 -2.788846,-2.480839 -2.595496,-1.233618 -5.326568,-2.244519 -7.431444,-4.290598 -0.463431,-0.451538 -0.9441,-0.886039 -1.390293,-1.354619 -2.340089,-2.457487 -4.349063,-5.262734 -5.248567,-8.573606 -0.341958,-1.672704 -0.891418,-3.613977 0.453697,-5.010127 0.171583,-0.17809 0.383736,-0.312044 0.575601,-0.468066 0.582875,-0.345417 0.846157,-0.540725 1.501318,-0.763201 1.632505,-0.554357 3.399774,-0.390378 5.078923,-0.219151 1.566744,0.251958 2.066843,0.311943 3.654071,0.655309 2.783337,0.602121 5.488215,1.49845 8.258408,2.153407 3.390291,0.723452 6.910128,1.49459 10.355141,0.67133 1.971516,-0.533245 3.908258,-1.193325 5.802662,-1.956989 2.014773,-0.767637 4.082917,-1.56745 6.264714,-1.621936 0.313203,0.02639 0.628967,0.03127 0.939609,0.07917 1.641502,0.253089 3.118224,1.076535 4.500584,1.953147 1.059691,0.703493 2.175738,1.431047 2.646485,2.67312 0.01722,0.146206 0.05721,0.291506 0.05166,0.438619 -0.02976,0.789825 -0.473602,1.465224 -0.854964,2.12442 -0.164439,0.284235 -1.093386,1.856564 -1.23639,2.098848 -1.01808,1.90922 -1.877052,3.928682 -1.992715,6.119127 0.0317,0.32521 0.03492,0.654469 0.0951,0.975633 0.139147,0.74264 0.386468,1.31382 0.705289,1.996752 0.560493,1.200608 1.213157,2.362798 2.034937,3.40591 0.539509,0.593408 0.92983,1.206926 1.756949,1.436542 0.191855,0.05326 0.399328,-0.04681 0.585875,-0.116416 0.103447,-0.0386 0.365824,-0.158774 0.263621,-0.200563 -1.197748,-0.48973 -0.137454,0.530344 -0.758005,-0.137123 0.379941,0.702691 0.878919,1.344777 1.160478,2.102202 0.694066,1.687815 0.957943,3.467325 0.91721,5.292839 -0.0109,3.001799 -0.02135,6.013199 -0.362331,8.999371 -0.292494,1.783856 -0.641149,3.706453 -1.892842,5.095727 -0.112006,0.05264 -0.214136,0.136441 -0.336016,0.157927 -0.931429,0.164204 -2.698689,-0.78909 -3.551417,-1.131088 -1.583836,-0.761254 -3.194717,-1.470914 -4.815224,-2.149853 -0.529863,-0.192181 -0.79193,-0.313206 -1.33998,-0.415478 -0.682339,-0.127331 -1.378408,-0.01725 -2.062692,0.0158 -1.30384,0.08577 -2.607103,0.148355 -3.914155,0.08402 -1.743994,-0.05842 -3.489916,-0.176885 -5.201746,-0.536692 -1.314564,-0.290375 -2.769269,-0.541917 -3.868251,-1.368298 0,0 -0.754314,0.626417 -0.754314,0.626417 z" />
    <path
       style="fill:#800080;stroke-width:1.1;stroke-miterlimit:4.1"
       id="path1151"
       d="m 31.404839,51.47135 c 0.38803,-0.21844 0.781031,-0.428273 1.16409,-0.655315 2.269939,-1.345404 4.47222,-2.804261 6.702414,-4.21332 2.909639,-1.838339 2.442133,-1.535213 5.389695,-3.309446 3.522057,-2.069023 7.058091,-4.125965 10.351725,-6.551062 0.924912,-0.681011 3.025929,-2.349119 3.957405,-3.083613 2.489806,-2.088425 5.260795,-3.772617 8.018016,-5.471049 1.848323,-1.089404 3.341023,-2.723856 5.239962,-3.731907 0.282903,-0.150179 0.584197,-0.262803 0.876297,-0.394204 0.28657,-0.06062 0.568238,-0.152879 0.859711,-0.181875 1.758701,-0.174957 3.230986,1.002934 4.491222,2.058424 1.8155,1.993488 2.885695,4.526529 3.902832,6.991377 0.47489,1.363615 0.781299,2.899436 0.02658,4.235167 -0.386509,0.684059 -0.897612,1.088358 -1.45728,1.623063 -1.683734,1.455883 -3.575172,2.219182 -5.75563,2.58804 -0.536958,0.09084 -1.079817,0.142457 -1.619726,0.213683 -2.320523,0.205332 -4.655434,0.334364 -6.986135,0.282559 -1.082048,-0.02405 -2.572719,-0.127251 -3.652655,-0.194223 -3.539117,-0.236879 -7.079843,-0.452527 -10.626895,-0.328491 -1.657252,0.115584 -3.26417,0.496465 -4.731057,1.296594 -1.550818,0.84591 -2.870245,2.068504 -4.204901,3.205615 -2.434781,2.064028 -5.140077,3.789214 -7.918966,5.348864 -1.180875,0.611619 -2.396821,1.166977 -3.669782,1.560277 -1.114152,0.344236 -2.272228,0.552397 -3.40692,0.815959 -1.021147,0.321453 -2.117384,0.352285 -3.139607,0.662882 -0.495026,0.150411 -0.754288,0.298418 -1.211762,0.521661 -0.493082,0.183401 -0.95624,0.517096 -1.471691,0.644514 -0.932036,0.230397 -1.997334,0.04145 -2.932761,-0.02593 -1.172325,0.0024 -3.149362,-0.525894 -4.176073,0.235561 -0.600161,0.445106 -0.568753,0.801907 -0.737813,1.465419 -0.0743,2.028409 1.128685,3.576672 2.39736,5.024289 0.800762,0.856745 1.621149,1.729251 2.691923,2.250059 0.56562,0.275109 0.988074,0.371941 1.587898,0.54813 0.327462,0.05037 0.652918,0.116173 0.982385,0.151095 0.754906,0.08002 1.845059,0.105114 2.58722,0.119417 1.584119,0.03053 3.166015,0.01532 4.749888,-0.01603 3.7636,-0.06916 7.47876,-0.728959 11.153799,-1.492576 0.663845,-0.137864 1.326759,-0.280297 1.991537,-0.413591 5.989408,-1.200912 -1.9657,0.419523 4.171847,-0.795356 2.66876,-0.528262 5.319353,-1.14241 7.972047,-1.744621 4.877941,-1.223391 9.82226,-2.120611 14.809701,-2.746369 2.582423,-0.4303 5.215723,-0.385064 7.803197,-0.743707 0.24759,-0.07525 0.516033,-0.101039 0.742771,-0.225756 1.644427,-0.904528 1.551948,-3.752673 1.670814,-5.341117 0.329322,-3.756398 0.598882,-7.514212 0.753655,-11.282278 0.242036,-4.037659 0.5357,-8.071015 0.724059,-12.111906 0.152678,-1.564341 0.01103,-3.156062 0.186037,-4.71855 0.06059,-0.541003 0.151349,-0.786655 0.296092,-1.300358 0.07539,-0.181573 0.138303,-0.368845 0.226169,-0.544719 0.230462,-0.461291 0.679034,-1.159693 0.931555,-1.582371 0.447614,-0.749229 0.865426,-1.509505 1.265283,-2.284897 0.696695,-1.398119 1.442852,-2.77072 2.17306,-4.151487 0.02066,-0.03915 0.631214,-1.215373 0.71129,-1.298974 0.421857,-0.440419 1.84858,0.569323 2.15791,0.765235 1.174707,0.795492 2.136055,1.796027 2.889604,2.989727 0.225912,0.355637 0.439068,0.71577 0.633812,1.089193 0,0 0.856721,-0.449586 0.856721,-0.449586 v 0 c -0.209571,-0.397219 -0.430884,-0.785451 -0.679209,-1.160213 -0.845807,-1.298861 -1.909683,-2.396609 -3.202805,-3.264342 -0.812512,-0.504179 -1.764705,-1.214657 -2.800776,-0.909208 -0.826762,0.243741 -1.021826,1.156486 -1.401546,1.796743 -0.732195,1.385522 -1.489083,2.758526 -2.186323,4.161957 -0.379003,0.757778 -0.775822,1.500152 -1.212618,2.226813 -0.277902,0.462325 -0.77606,1.216633 -1.02136,1.711634 -0.103894,0.20965 -0.1734,0.43465 -0.260099,0.651974 -0.165843,0.617617 -0.254862,0.854505 -0.320561,1.50683 -0.157692,1.565758 0.0158,3.158713 -0.133149,4.725708 -0.164475,4.042743 -0.459354,8.076393 -0.705712,12.114517 -0.15811,3.75734 -0.442558,7.502663 -0.783683,11.247356 -0.06248,0.752387 -0.142163,1.955924 -0.276516,2.729912 -0.08938,0.514925 -0.257469,1.458056 -0.781251,1.774831 -0.177663,0.107447 -0.393385,0.132977 -0.590077,0.199467 -2.575597,0.399512 -5.207862,0.343542 -7.779723,0.801219 -5.008743,0.667419 -9.970337,1.605772 -14.877329,2.818466 -4.695102,1.047485 -9.409398,1.98483 -14.132338,2.896179 -3.623656,0.743445 -7.282206,1.402575 -10.992718,1.456619 -2.675596,0.04734 -5.382643,0.117695 -8.036932,-0.265771 -0.488089,-0.141952 -0.921418,-0.24624 -1.382793,-0.462643 -0.983424,-0.461267 -1.724917,-1.270471 -2.457471,-2.047052 -1.071025,-1.21271 -2.148615,-2.506194 -2.167727,-4.208219 0.02693,-0.208098 0.03357,-0.621565 0.21412,-0.800952 0.64735,-0.6432 2.862584,-0.171387 3.695901,-0.178242 1.109135,0.0867 2.261644,0.269483 3.36138,0.0011 0.539188,-0.131556 1.020152,-0.486889 1.535947,-0.677288 0.335412,-0.167296 0.646588,-0.339183 1.006528,-0.45189 1.019031,-0.319087 2.11582,-0.357066 3.133688,-0.687472 1.166336,-0.277516 2.356347,-0.49561 3.501509,-0.854758 1.320636,-0.414181 2.581788,-0.997056 3.807804,-1.633474 2.828428,-1.589333 5.569228,-3.367365 8.050877,-5.46363 1.271728,-1.08113 2.52921,-2.246371 4.000095,-3.060266 1.360437,-0.752779 2.848057,-1.114975 4.390999,-1.224309 3.517408,-0.131771 7.029855,0.08788 10.539741,0.318627 1.084455,0.06669 2.62246,0.171614 3.70699,0.196551 2.369417,0.05448 4.742632,-0.07267 7.101869,-0.281181 0.56402,-0.07188 1.131218,-0.122129 1.692055,-0.215643 2.354191,-0.392541 4.397804,-1.237049 6.208604,-2.811598 0.70022,-0.680923 1.222995,-1.082029 1.688852,-1.964721 0.825674,-1.564466 0.508558,-3.3264 -0.05726,-4.906807 -1.082527,-2.597454 -2.201913,-5.27481 -4.151889,-7.352677 -1.514711,-1.258681 -3.190751,-2.520126 -5.289355,-2.262175 -0.354391,0.04356 -0.695015,0.164061 -1.042522,0.246091 -0.325474,0.150885 -0.661222,0.281343 -0.976423,0.452654 -1.888218,1.026245 -3.384725,2.650427 -5.23493,3.738494 -2.78684,1.717456 -5.549339,3.477459 -8.065278,5.585585 -0.927301,0.737536 -2.984124,2.384832 -3.909441,3.072908 -3.265847,2.428515 -6.77431,4.492305 -10.287482,6.536621 -3.225543,1.941605 -2.220608,1.317056 -5.40848,3.314401 -2.21855,1.390018 -4.420182,2.815312 -6.704053,4.097856 -0.373528,0.209759 -0.758248,0.398936 -1.137372,0.598403 0,0 0.412314,0.862849 0.412314,0.862849 z" />
    <path
       sodipodi:type="star"
       style="fill:#800080;stroke-width:4.15748;stroke-miterlimit:4.1"
       id="path1274"
       inkscape:flatsided="false"
       sodipodi:sides="9"
       sodipodi:cx="247.86848"
       sodipodi:cy="91.559273"
       sodipodi:r1="64.506706"
       sodipodi:r2="27.192095"
       sodipodi:arg1="0.95726927"
       sodipodi:arg2="1.3063351"
       inkscape:rounded="0"
       inkscape:randomized="0"
       d="m 285.00853,144.3014 -30.03232,-26.49541 -12.55878,38.02926 -5.97518,-39.60107 -34.06532,21.05947 20.87782,-34.17694 -39.63231,-5.764276 37.96186,-12.761054 -26.65491,-29.89085 37.28311,14.625878 -1.20537,-40.031168 19.15919,35.1692 24.80816,-31.440456 -7.92953,39.256461 39.21369,-8.138405 -31.30794,24.975188 35.2707,18.971692 -40.03702,-0.99225 z"
       transform="scale(0.26458334)"
       inkscape:transform-center-x="0.25044462"
       inkscape:transform-center-y="0.26616383" />
  </g>
</svg>
